
<svg xmlns="http://www.w3.org/2000/svg" version="1.1" xmlns:xlink="http://www.w3.org/1999/xlink" xmlns:svgjs="http://svgjs.dev/svgjs" width="70" height="70" viewBox="0 0 140 100">
    <g xmlns="http://www.w3.org/2000/svg"><svg viewBox="0 0 139.1081969337583 107.61877580319269" height="107.61877580319269" width="139.1081969337583"><g><svg xmlns="http://www.w3.org/2000/svg" xmlns:xlink="http://www.w3.org/1999/xlink" version="1.1" x="0" y="0" viewBox="0.2893825173377991 9.64895248413086 99.00042724609375 76.59005737304688" enable-background="new 0 0 100 100" xml:space="preserve" height="107.61877580319269" width="139.1081969337583" class="icon-icon-0" data-fill-palette-color="accent" id="icon-0"><g fill="#ffcf31" data-fill-palette-color="accent"><path fill="#ffcf31" d="M51.259 52.326h-2.92c-0.29 0-0.29 0.438 0 0.438h2.92C51.552 52.764 51.552 52.326 51.259 52.326z" data-fill-palette-color="accent"/><path fill="#ffcf31" d="M54.95 38.826H44.68c-0.292 0-0.292 0.437 0 0.437h10.27C55.238 39.263 55.238 38.826 54.95 38.826z" data-fill-palette-color="accent"/><path fill="#ffcf31" d="M31.968 47.044l0.349 0.13c0.115-0.309 0.184-0.64 0.19-0.986l-0.372-0.008C32.127 46.481 32.069 46.774 31.968 47.044z" data-fill-palette-color="accent"/><path fill="#ffcf31" d="M51.406 38.535l0.939-1.635 1.381-0.005 0.94-1.635-0.94-1.636h-1.886l-0.942 1.636-1.377 0.005L48.58 36.9l0.942 1.635H51.406zM49.773 35.703h0.688 0.691l0.688 1.197-0.688 1.196h-0.691-0.688L49.084 36.9 49.773 35.703z" data-fill-palette-color="accent"/><path fill="#ffcf31" d="M99.213 10.478l-0.579-0.686c-0.049-0.084-0.141-0.145-0.271-0.143l-1.469 0.022c-0.123 0.005-0.16 0.048-0.174 0.057l-31.742 22.5h-0.726v-3.414l-1.041-1.263-0.504-0.201 2.134-2.446 0.049-0.075 2.295-5.037c0.164-0.361-0.153-0.617-0.47-0.375l-7.542 5.803c-0.021 0.013-0.107 0.155-0.113 0.178l-0.606 2.718-2.245-1.006-1.12-9.063c-0.039-0.169-0.082-0.344-0.127-0.496-0.435-1.496-1.25-2.244-2.66-2.244h-5.025c-1.569 0-2.389 0.938-2.785 2.74l-1.122 9.064-2.245 1.005-0.607-2.718c-0.005-0.022-0.094-0.165-0.113-0.178l-7.543-5.803c-0.312-0.242-0.633 0.014-0.471 0.375l2.296 5.037 0.048 0.075 2.139 2.446-0.508 0.201-1.043 1.263v3.414h-0.721L2.859 9.729C2.845 9.72 2.809 9.677 2.686 9.672l-1.47-0.023c-0.131-0.002-0.221 0.059-0.27 0.143l-0.578 0.686c-0.101 0.119-0.121 0.308 0.038 0.439l15.776 13.036-0.457 0.562c-0.13 0.16-0.077 0.337 0.042 0.435l12.854 10.595c-1.286 1.031-2.222 2.183-2.764 3.482l-0.498 0.067c-0.03 0.004-0.184 0.092-0.203 0.115-2.365 2.979-3.756 6.944-3.756 11.288 0 6.296 2.986 11.801 7.427 14.653 0.308 0.199 0.621 0.382 0.942 0.554l0.584 3.021 1.031 5.293c0.938 2.444 2.997 5.196 5.024 6.812 0.022 0.133 0.124 0.25 0.305 0.25h2.421c0.164 0 0.309-0.144 0.309-0.31v-5.908h0.327l2.171 4.496c0.019 0.041 0.122 0.104 0.167 0.104h3.405l-0.18 0.744c-0.004 0.01 0 0.147 0.003 0.162l1.667 5.649c0.03 0.101 0.192 0.222 0.297 0.222h4.998c0.104 0 0.271-0.121 0.3-0.222l1.668-5.649c0.002-0.015 0.006-0.152 0.002-0.162l-0.179-0.744h3.378c0.043 0 0.146-0.063 0.168-0.104l2.172-4.496h0.325v5.908c0 0.166 0.146 0.31 0.31 0.31h2.42c0.183 0 0.283-0.117 0.308-0.25 2.03-1.613 4.088-4.365 5.024-6.812l1.031-5.293 0.584-3.021c0.321-0.172 0.635-0.354 0.941-0.554 4.439-2.854 7.428-8.357 7.428-14.653 0-4.344-1.394-8.308-3.759-11.288-0.021-0.023-0.171-0.11-0.198-0.115l-0.503-0.067c-0.54-1.299-1.474-2.451-2.761-3.482L83.809 24.95c0.119-0.098 0.174-0.275 0.043-0.435l-0.457-0.562 15.774-13.036C99.333 10.785 99.312 10.597 99.213 10.478zM62.836 28.07l0.803 0.967v3.811h0.465l-1.637 1.158 0.145-6.026L62.836 28.07zM59.643 25.644l6.463-4.974-1.758 3.86-2.266 2.593c-0.016 0.019-0.078 0.174-0.078 0.197l-0.216 9.196c-0.013 0.414 0.606 0.428 0.616 0.015l0.043-1.751 34.552-24.489 0.511-0.008L57.459 42.874l-2.52 0.953 0.592-2.037c0.275 0.387 1.201 0.791 1.365 0.894 0.351 0.219 0.679-0.308 0.328-0.526l-1.115-0.698L59.643 25.644zM51.802 52.412l-0.013 0.086c0 0.176 0.809 3.562 0.809 3.562l-2.809 0.84-2.805-0.84c0 0 0.807-3.389 0.807-3.562l-0.011-0.086-3.886-13.379 0.724-5.944c0.359-1.632 1.007-2.225 2.17-2.225h6.004c1.163 0 1.81 0.593 2.171 2.225l0.727 5.944L51.802 52.412zM53.201 49.809h0.843c-0.006 0.128 0.062 0.261 0.194 0.309l-1.817 2.475-0.011-0.061L53.201 49.809zM56.887 72.568l-0.361 1.949h-3.207l-1.409-5.795-0.136-0.562c-0.026-0.113-0.188-0.238-0.303-0.238h-3.364c-0.114 0-0.273 0.125-0.3 0.238l-0.137 0.562-1.41 5.795h-3.204l-0.36-1.949 0.34-0.066-0.278-1.438-0.328 0.062-1.5-8.133 6.283-0.918c0.033-0.007 0.128-0.076 0.142-0.105l0.052-0.104 0.899-1.925h1.484 1.481l0.9 1.925 0.053 0.104c0.014 0.029 0.105 0.101 0.141 0.105l6.283 0.918-1.498 8.133-0.327-0.062-0.279 1.438L56.887 72.568zM49.542 79.74v-0.908h0.522v0.908H49.542zM50.063 80.535v0.904h-0.522v-0.904H50.063zM49.542 78.034V77.13h0.522v0.904H49.542zM49.542 76.332v-0.904h0.522v0.904H49.542zM49.542 74.63v-0.905h0.522v0.905H49.542zM49.54 72.927l-0.622-2.179h0.886 0.883l-0.623 2.179H49.54zM47.155 52.59l-1.814-2.473c0.136-0.048 0.201-0.18 0.192-0.309h0.843L47.155 52.59zM47.684 21.005h4.212c0.137 0 0.209 0.11 0.162 0.247l-0.406 1.19c-0.047 0.137-0.196 0.248-0.334 0.248h-3.06c-0.136 0-0.284-0.111-0.33-0.248l-0.409-1.19C47.474 21.115 47.546 21.005 47.684 21.005zM47.52 19.027c-0.046-0.136 0.026-0.247 0.164-0.247h4.212c0.137 0 0.209 0.111 0.162 0.247l-0.406 1.189c-0.047 0.137-0.196 0.249-0.334 0.249h-3.06c-0.136 0-0.284-0.112-0.33-0.249L47.52 19.027zM47.684 23.23h4.212c0.137 0 0.209 0.111 0.162 0.248l-0.406 1.189c-0.047 0.137-0.196 0.249-0.334 0.249h-3.06c-0.136 0-0.284-0.111-0.33-0.249l-0.409-1.189C47.474 23.341 47.546 23.23 47.684 23.23zM47.684 25.456h4.212c0.137 0 0.209 0.111 0.162 0.248l-0.406 1.189c-0.047 0.137-0.196 0.248-0.334 0.248h-3.06c-0.136 0-0.284-0.111-0.33-0.248l-0.409-1.189C47.474 25.567 47.546 25.456 47.684 25.456zM47.684 27.682h4.212c0.137 0 0.209 0.111 0.162 0.248l-0.406 1.189c-0.047 0.137-0.196 0.248-0.334 0.248h-3.06c-0.136 0-0.284-0.111-0.33-0.248L47.52 27.93C47.474 27.792 47.546 27.682 47.684 27.682zM58.316 28.734l-1.227 5.493-0.792-6.398L58.316 28.734zM45.103 18.152c0.362-1.631 1.009-2.225 2.174-2.225h5.025c1.069 0 1.691 0.5 2.065 1.798 0.037 0.134 0.074 0.277 0.109 0.427l2.213 17.874-0.086 0.377-0.386-3.167c-0.321-1.478-0.907-2.409-2.069-2.667-0.375-0.215-0.823-0.325-1.357-0.325h-0.273V18.29c0-0.137-0.111-0.248-0.25-0.248h-4.929c-0.137 0-0.247 0.111-0.247 0.248v11.954h-0.305l0.012-8.248c0-0.248-0.371-0.248-0.373 0v0.931H46.02v1.521h0.404l-0.01 5.816c-0.376 0.039-0.704 0.143-0.986 0.306-1.161 0.259-1.747 1.19-2.072 2.667l-0.383 3.159-0.084-0.375L45.103 18.152zM43.281 27.831l-0.791 6.391-1.227-5.488L43.281 27.831zM35.943 32.848v-3.811l0.799-0.967 0.229-0.091 0.141 6.026-1.633-1.158L35.943 32.848zM2.58 10.291L37.132 34.78l0.042 1.751c0.01 0.413 0.628 0.398 0.62-0.015l-0.218-9.196c0-0.023-0.063-0.179-0.078-0.197l-2.265-2.593-1.76-3.86 6.465 4.974 2.325 10.413c0 0.057 0.011 0.106 0.034 0.149l1.17 5.255-1.112 0.698c-0.354 0.218-0.022 0.746 0.329 0.526 0.163-0.103 1.085-0.505 1.363-0.892l0.592 2.033-2.518-0.951L2.069 10.283 2.58 10.291zM1.044 10.638l0.194-0.23 40.532 32.98 0.085 0.05 2.998 1.134 0.1 0.346-3.136-1.198-4.23 2.453c-0.213 0.123-0.028 0.446 0.188 0.322l1.631-0.946 3.083-0.573 2.228 0.916 0.938 3.296h-2.444L40.121 47c-0.011-0.009-0.151-0.057-0.165-0.057l-2.723-0.104-7.434-7.425 0.991-3.965c0.016-0.075-0.046-0.265-0.104-0.315L1.044 10.638zM31.713 53.581V54h-2.082v0.868h2.082v0.415h-2.082v0.871h2.082v0.416h-2.082v0.867h2.082v0.418h-2.082v0.869h2.082v0.258c0 0.139-0.11 0.246-0.247 0.246h-1.971c-0.137 0-0.25-0.107-0.25-0.246v-8.199c0.369 0.109 0.761 0.168 1.164 0.168 0.458 0 0.895-0.074 1.303-0.209v0.688H29.63v0.867h2.083v0.418h-2.082v0.866H31.713zM30.409 49.995c-1.103 0-2.087-0.51-2.73-1.31 0.496 0.338 1.091 0.533 1.733 0.533 0.327 0 0.636-0.051 0.929-0.146l-0.111-0.354c-0.26 0.082-0.529 0.127-0.818 0.127-1.502 0-2.722-1.22-2.722-2.727 0-1.506 1.219-2.728 2.722-2.728 1.284 0 2.36 0.891 2.648 2.088l0.361-0.087c-0.303-1.262-1.375-2.224-2.694-2.357 0.085-0.017 0.172-0.03 0.26-0.042h0.846c0.468 0.056 0.914 0.206 1.33 0.43l1.285 1.3c0.297 0.517 0.47 1.117 0.47 1.757C33.918 48.422 32.347 49.995 30.409 49.995zM26.918 44.279v-1.286h1.279C27.68 43.323 27.245 43.763 26.918 44.279zM16.402 24.667l0.259-0.319L30.14 35.487l-0.103 0.418L16.402 24.667zM29.111 35.948l0.758 0.625-0.493 1.976-2.785 0.378C27.149 37.734 28.087 36.75 29.111 35.948zM22.021 50.496c0-4.164 1.32-7.952 3.546-10.804l3.245-0.441c-0.037 0.13-0.07 0.268-0.087 0.396l-2.845 0.349c-0.056 0.006-0.146 0.087-0.159 0.144l-2.175 9.615v3.677H22.25C22.097 52.479 22.021 51.498 22.021 50.496zM23.149 56.904c-0.363-0.985-0.647-2.021-0.838-3.1h0.838V56.904zM31.973 73.816l-0.988-5.094-0.519-2.662c0.569 0.27 1.151 0.5 1.744 0.686 0.395 0.127 0.58-0.469 0.187-0.592-0.751-0.236-1.485-0.545-2.211-0.93-0.199-0.105-0.393-0.214-0.584-0.326l-0.126-0.075-0.322-0.2c-2.403-1.551-4.374-3.919-5.632-6.797v-4.021h0.211c0.098 0 0.186-0.088 0.186-0.188v-1.832h0.32v-1.521h-0.32v-0.487l2.136-9.429 2.738-0.293 2.32 2.317h-0.241c-0.151-0.017-0.304-0.026-0.46-0.026-0.153 0-0.307 0.009-0.457 0.026H26.61c-0.166 0-0.308 0.146-0.308 0.311v3.451c-0.011 0.114-0.015 0.23-0.015 0.346 0 0.118 0.004 0.233 0.015 0.348v3.262c0 0.033 0.067 0.197 0.088 0.22l1.411 1.415v8.181c0 0.073 0.104 0.243 0.169 0.274l4.093 2.103c0.368 0.188 0.649-0.363 0.282-0.554l-0.166-0.086V50.219c1.394-0.663 2.361-2.086 2.361-3.738 0-0.257-0.025-0.51-0.07-0.755l1.969 1.966c0.02 0.02 0.177 0.089 0.205 0.089l2.75 0.107 3.096 2.191c0.016 0.009 0.161 0.056 0.18 0.056h1.918l2.396 3.262c-0.138 0.603-0.322 1.371-0.464 1.953l-13.623-4.252c-0.226-0.067-0.403 0.062-0.403 0.297l0.006 5.567 1.666 7.742c0.005 0.226 0.052 1.692 0.274 4.019v0.002c0.257 2.721 0.758 6.614 1.718 11.074C34.482 78.289 32.82 75.938 31.973 73.816zM45.939 55.82l-0.025 0.871-3.893 0.826-4.659-3.287-0.034-1.102L45.939 55.82zM38.827 80.459h-1.889c-1.06-4.729-1.601-8.872-1.875-11.736-0.247-2.554-0.283-4.093-0.285-4.119l-1.666-7.736v-5.051l2.791 0.871v4.473l0.02 0.109 2.904 7.637V80.459zM40.058 74.59c-0.019-0.04-0.123-0.104-0.167-0.104h-0.444v-5.764V64.85l-0.02-0.107L38.781 63l-2.259-5.896v-0.078l0.458 0.115 0.022 0.608 2.472 6.522v4.451 4.59l0.02 0.078 1.008 2.12L40.058 74.59zM45.326 78.533l0.098 0.332h-2.912l-2.666-5.596-0.005-4.547-0.007-4.554-2.472-6.526-0.013-0.41c1.502 0.387 3.982 1.025 4.156 1.076 0.251 0.069 4.624-0.287 4.624-0.287l1.66 1.559-0.873 1.869-2.813 0.412 0.042 0.287-3.46 0.504c-0.105 0.017-0.176 0.115-0.156 0.22l2.188 11.867c0.013 0.073 0.106 0.151 0.182 0.151h3.271l-0.847 3.479C45.319 78.385 45.323 78.521 45.326 78.533zM52.391 84.531c-0.08-0.102-0.277-0.105-0.326 0.062l-0.217 0.729h-4.091l-0.213-0.729c-0.05-0.167-0.245-0.163-0.328-0.062l-1.252-4.247h0.374l0.352-1.452h-0.383l0.952-3.907h0.384l0.927-3.812 0.537 1.881v9.098l-1.084 2.201c-0.13 0.262 0.261 0.457 0.391 0.193l1.108-2.248h0.566l1.11 2.248c0.128 0.264 0.522 0.068 0.391-0.193l-1.085-2.201v-9.098l0.538-1.883 0.938 3.812h0.369l0.948 3.907h-0.358l0.354 1.452h0.349L52.391 84.531zM57.068 78.865h-2.914l0.098-0.332c0.004-0.012 0.008-0.148 0.004-0.161l-0.849-3.481h3.272c0.075 0 0.172-0.078 0.184-0.149l2.187-11.867c0.021-0.104-0.053-0.203-0.155-0.222l-3.461-0.504 0.041-0.287-2.812-0.41-0.872-1.869 1.658-1.561c0 0 4.375 0.358 4.624 0.287 0.176-0.049 2.655-0.688 4.157-1.074l-0.013 0.408-2.472 6.528-0.01 4.552-0.004 4.547L57.068 78.865zM53.641 55.82l8.609-2.689-0.031 1.1-4.662 3.289-3.892-0.828L53.641 55.82zM60.152 64.74l-0.02 0.109v3.873 5.762h-0.443c-0.047 0-0.146 0.063-0.168 0.104l-0.444 0.922 1.008-2.119 0.021-0.078v-4.59-4.451l2.476-6.523 0.021-0.609 0.457-0.115v0.078l-2.256 5.896L60.152 64.74zM62.643 80.459h-1.89V68.723v-3.816l0.626-1.688 2.279-5.946 0.02-0.11v-4.472l2.793-0.871v5.05l-1.669 7.737c-0.004 0.025-0.038 1.564-0.286 4.119C64.242 71.589 63.701 75.73 62.643 80.459zM76.059 57.826h-0.002c-1.254 2.878-3.225 5.246-5.629 6.797l-0.324 0.2-0.123 0.075c-0.192 0.112-0.39 0.221-0.586 0.326-0.727 0.385-1.461 0.691-2.211 0.93-0.395 0.123-0.209 0.719 0.186 0.592 0.596-0.186 1.177-0.416 1.742-0.686l-0.516 2.662-0.986 5.094c-0.852 2.119-2.512 4.473-4.188 5.981 0.959-4.458 1.461-8.354 1.722-11.073 0.224-2.328 0.269-3.795 0.271-4.021l1.666-7.742 0.009-5.566c0-0.236-0.177-0.365-0.401-0.297l-13.623 4.254c-0.141-0.582-0.328-1.354-0.465-1.951l2.398-3.267h1.919c0.019 0 0.162-0.047 0.179-0.056l3.094-2.191 2.75-0.107c0.026 0 0.188-0.069 0.207-0.089l1.97-1.966c-0.046 0.245-0.07 0.498-0.07 0.755 0 1.651 0.966 3.075 2.361 3.738v11.425l-0.166 0.086c-0.369 0.188-0.087 0.741 0.282 0.554l4.093-2.101c0.063-0.033 0.171-0.203 0.171-0.276v-8.181l1.406-1.415c0.023-0.022 0.095-0.187 0.095-0.22v-3.262c0.009-0.115 0.013-0.23 0.013-0.348 0-0.116-0.004-0.231-0.013-0.346v-3.451c0-0.166-0.146-0.311-0.312-0.311h-3.35c-0.146-0.017-0.301-0.026-0.455-0.026-0.156 0-0.311 0.009-0.459 0.026h-0.242l2.317-2.317 2.739 0.293 2.138 9.429v0.487h-0.319v1.521h0.319v1.832c0 0.1 0.087 0.188 0.185 0.188h0.209V57.826zM67.521 45.479c0.285-1.197 1.361-2.088 2.646-2.088 1.504 0 2.722 1.222 2.722 2.728 0 1.506-1.218 2.727-2.722 2.727-0.287 0-0.56-0.046-0.815-0.127l-0.115 0.354c0.296 0.095 0.604 0.146 0.933 0.146 0.644 0 1.24-0.195 1.733-0.533-0.645 0.8-1.627 1.31-2.73 1.31-1.936 0-3.509-1.573-3.509-3.514 0-0.64 0.171-1.24 0.471-1.757l1.282-1.3c0.415-0.225 0.863-0.374 1.331-0.43h0.847c0.088 0.011 0.172 0.025 0.26 0.042-1.315 0.133-2.39 1.095-2.692 2.357L67.521 45.479zM71.385 42.994h1.276v1.286C72.336 43.763 71.898 43.323 71.385 42.994zM67.867 57.855v-0.418h2.082V56.57h-2.082v-0.416h2.082v-0.871h-2.082v-0.415h2.082V54h-2.082v-0.419h2.082v-0.866h-2.082v-0.418h2.082V51.43h-2.082v-0.688c0.406 0.135 0.846 0.209 1.303 0.209 0.402 0 0.793-0.059 1.163-0.168v8.199c0 0.139-0.11 0.246-0.25 0.246h-1.97c-0.139 0-0.246-0.107-0.246-0.246v-0.258h2.082v-0.869H67.867zM76.428 56.904v-3.1h0.842C77.078 54.884 76.795 55.919 76.428 56.904zM74.014 39.692c2.228 2.852 3.547 6.64 3.547 10.804 0 1.002-0.078 1.982-0.229 2.938h-1.297v-3.678l-2.176-9.615c-0.014-0.057-0.104-0.138-0.157-0.144l-2.847-0.349c-0.018-0.129-0.049-0.267-0.086-0.396L74.014 39.692zM72.986 38.927l-2.783-0.378-0.495-1.976 0.763-0.625C71.494 36.75 72.43 37.734 72.986 38.927zM69.545 35.906l-0.105-0.418 13.48-11.139 0.262 0.319L69.545 35.906zM68.895 35.132c-0.06 0.05-0.123 0.24-0.104 0.315l0.991 3.965-7.435 7.425-2.722 0.104c-0.017 0-0.155 0.048-0.168 0.057l-3.088 2.188h-2.445l0.938-3.296 2.229-0.916 3.082 0.573 1.635 0.946c0.213 0.125 0.399-0.199 0.186-0.322l-4.227-2.453-3.144 1.199 0.101-0.347 3.004-1.134 0.086-0.05 40.531-32.979 0.193 0.229L68.895 35.132z" data-fill-palette-color="accent"/><path fill="#ffcf31" d="M31.247 48.126l0.254 0.272c0.205-0.195 0.388-0.417 0.541-0.662l-0.318-0.197C31.593 47.758 31.429 47.954 31.247 48.126z" data-fill-palette-color="accent"/><path fill="#ffcf31" d="M67.264 47.174l0.35-0.13c-0.102-0.271-0.16-0.563-0.168-0.865l-0.371 0.008C67.081 46.535 67.148 46.866 67.264 47.174z" data-fill-palette-color="accent"/><path fill="#ffcf31" d="M68.08 48.398l0.253-0.272c-0.181-0.172-0.343-0.368-0.479-0.586l-0.312 0.197C67.689 47.981 67.873 48.204 68.08 48.398z" data-fill-palette-color="accent"/><path fill="#ffcf31" d="M70.167 48.431c1.274 0 2.31-1.035 2.31-2.312 0-1.278-1.035-2.313-2.31-2.313-1.276 0-2.31 1.036-2.31 2.313C67.857 47.396 68.891 48.431 70.167 48.431zM69.432 47.831h-0.178l-0.227-0.348 0.203-0.35h0.199 0.199l0.203 0.35-0.203 0.348H69.432zM70.156 46.715h0.201l0.199 0.35-0.199 0.348h-0.201-0.203l-0.202-0.348 0.202-0.35H70.156zM69.751 46.228l0.202-0.349h0.203 0.201l0.199 0.349-0.199 0.349h-0.201-0.203L69.751 46.228zM70.477 46.648l0.2-0.35h0.201 0.202l0.201 0.35-0.201 0.349h-0.202-0.201L70.477 46.648zM71.199 46.23l0.203-0.349H71.6h0.201l0.202 0.349-0.202 0.35h-0.199-0.199L71.199 46.23zM71.08 46.16h-0.202-0.201l-0.2-0.348 0.2-0.35h0.201 0.202l0.201 0.35L71.08 46.16zM70.878 45.323h-0.201l-0.2-0.348 0.2-0.35h0.201 0.202l0.201 0.35-0.201 0.348H70.878zM70.559 45.392l-0.201 0.349h-0.2-0.203l-0.201-0.349 0.201-0.349h0.203 0.2L70.559 45.392zM69.631 45.321h-0.199-0.199l-0.203-0.348 0.203-0.349h0.199 0.199l0.203 0.349L69.631 45.321zM69.432 45.46h0.199l0.203 0.35-0.203 0.349h-0.199-0.199l-0.203-0.349 0.203-0.35H69.432zM69.111 46.227l-0.203 0.348H68.71h-0.202l-0.201-0.348 0.2-0.349h0.202 0.199L69.111 46.227zM69.232 46.296l0.199-0.001 0.198 0.001 0.203 0.35-0.203 0.347h-0.198-0.199l-0.203-0.347L69.232 46.296zM70.482 48.035c-0.104 0.015-0.207 0.024-0.314 0.024-0.116 0-0.23-0.009-0.344-0.028l-0.072-0.128 0.201-0.351h0.203 0.201l0.199 0.351L70.482 48.035zM71.08 47.833l-0.202-0.001-0.201 0.001-0.2-0.349 0.2-0.35h0.201 0.202l0.201 0.35L71.08 47.833zM71.607 47.417h-0.205l-0.203-0.35 0.203-0.35H71.6h0.201l0.124 0.214C71.846 47.109 71.736 47.272 71.607 47.417zM71.994 46.772l-0.071-0.122 0.167-0.292C72.073 46.501 72.038 46.639 71.994 46.772zM72.104 46.119l-0.182-0.305 0.115-0.202C72.082 45.773 72.104 45.944 72.104 46.119zM71.98 45.437l-0.179 0.307h-0.2-0.199l-0.203-0.349 0.203-0.35h0.199 0.181C71.861 45.167 71.93 45.298 71.98 45.437zM71.669 44.893l-0.267 0.014-0.168-0.408C71.398 44.606 71.544 44.741 71.669 44.893zM71.115 44.426l-0.237 0.061h-0.201l-0.159-0.278C70.729 44.249 70.934 44.322 71.115 44.426zM70.156 44.207h0.201l0.199 0.35-0.199 0.349-0.201-0.001-0.203 0.001-0.202-0.349 0.202-0.35H70.156zM69.79 44.214l-0.159 0.271h-0.199l-0.229-0.05C69.383 44.332 69.579 44.255 69.79 44.214zM69.086 44.508l-0.178 0.395h-0.252C68.779 44.75 68.924 44.617 69.086 44.508zM68.557 45.041h0.152 0.199l0.203 0.35-0.203 0.348h-0.199-0.201l-0.162-0.28C68.396 45.311 68.469 45.17 68.557 45.041zM68.282 45.665l0.104 0.143-0.158 0.274C68.234 45.917 68.251 45.79 68.282 45.665zM68.331 46.742c-0.037-0.108-0.063-0.221-0.08-0.336l0.138 0.239L68.331 46.742zM68.507 46.713h0.202 0.199l0.203 0.351-0.203 0.347h-0.188c-0.133-0.149-0.244-0.319-0.326-0.505L68.507 46.713z" data-fill-palette-color="accent"/><path fill="#ffcf31" d="M68.469 48.71c0.188 0.119 0.381 0.218 0.58 0.295l0.137-0.345c-0.182-0.072-0.352-0.16-0.52-0.265L68.469 48.71z" data-fill-palette-color="accent"/><path fill="#ffcf31" d="M30.396 48.66l0.133 0.345c0.202-0.077 0.395-0.176 0.582-0.295l-0.198-0.315C30.746 48.5 30.574 48.588 30.396 48.66z" data-fill-palette-color="accent"/><path fill="#ffcf31" d="M64.303 64.59l-3.102-0.035c-0.248-0.002-0.253 0.37-0.006 0.371l3.104 0.035C64.545 64.965 64.552 64.593 64.303 64.59z" data-fill-palette-color="accent"/><path fill="#ffcf31" d="M35.496 57.047h-1.847c-0.247 0-0.247 0.369 0 0.369h1.847C35.741 57.416 35.741 57.047 35.496 57.047z" data-fill-palette-color="accent"/><path fill="#ffcf31" d="M31.722 46.119c0-1.278-1.034-2.313-2.31-2.313-1.275 0-2.308 1.036-2.308 2.313 0 1.277 1.034 2.312 2.308 2.312C30.689 48.431 31.722 47.396 31.722 46.119zM31.249 46.742l-0.058-0.098 0.14-0.239C31.312 46.521 31.284 46.634 31.249 46.742zM29.747 45.811l0.201-0.35h0.201 0.201l0.202 0.35-0.204 0.349h-0.199-0.201L29.747 45.811zM29.828 46.228l-0.204 0.349h-0.199-0.204l-0.201-0.349 0.201-0.349h0.204 0.201L29.828 46.228zM30.347 45.321h-0.199-0.201l-0.201-0.348 0.201-0.349h0.201 0.201l0.202 0.349L30.347 45.321zM29.828 45.392l-0.204 0.349h-0.199-0.204l-0.201-0.349 0.201-0.349h0.204 0.201L29.828 45.392zM28.902 45.323H28.7h-0.201l-0.203-0.348 0.203-0.35H28.7h0.203l0.202 0.35L28.902 45.323zM28.5 45.462h0.201 0.203l0.202 0.35-0.202 0.348h-0.203H28.5l-0.203-0.348L28.5 45.462zM28.382 46.23l-0.202 0.35h-0.202-0.202l-0.201-0.35 0.201-0.349h0.202 0.202L28.382 46.23zM28.499 46.298H28.7h0.203l0.202 0.35-0.202 0.349H28.7h-0.201l-0.203-0.349L28.499 46.298zM29.223 46.715h0.204 0.201l0.202 0.35-0.204 0.348h-0.199-0.204l-0.201-0.348L29.223 46.715zM29.747 46.646l0.201-0.35 0.201-0.001 0.201 0.001 0.202 0.35-0.204 0.347h-0.199-0.201L29.747 46.646zM30.467 46.227l0.203-0.349h0.202 0.203l0.2 0.349-0.204 0.348h-0.199H30.67L30.467 46.227zM31.35 46.082l-0.159-0.274 0.105-0.143C31.327 45.79 31.344 45.917 31.35 46.082zM31.235 45.459l-0.165 0.28h-0.198H30.67l-0.203-0.348 0.203-0.35h0.202 0.153C31.111 45.17 31.181 45.311 31.235 45.459zM30.923 44.903h-0.05H30.67l-0.174-0.395C30.657 44.617 30.802 44.75 30.923 44.903zM30.377 44.435l-0.029 0.05h-0.199-0.201l-0.157-0.271C29.999 44.255 30.198 44.332 30.377 44.435zM29.426 44.207h0.201l0.202 0.35-0.204 0.349-0.199-0.001-0.204 0.001-0.201-0.349 0.201-0.35H29.426zM29.062 44.209l-0.16 0.278H28.7l-0.237-0.061C28.647 44.322 28.849 44.249 29.062 44.209zM28.346 44.499l0.036 0.061-0.202 0.348-0.268-0.014C28.035 44.741 28.184 44.606 28.346 44.499zM27.798 45.044h0.18 0.202l0.202 0.35-0.202 0.349h-0.202-0.202l-0.177-0.307C27.651 45.298 27.719 45.167 27.798 45.044zM27.542 45.612l0.116 0.202-0.182 0.305C27.477 45.944 27.499 45.773 27.542 45.612zM27.49 46.358l0.168 0.292-0.07 0.122C27.541 46.639 27.508 46.501 27.49 46.358zM27.654 46.932l0.122-0.214h0.202 0.202l0.202 0.35-0.202 0.35h-0.208C27.844 47.272 27.735 47.109 27.654 46.932zM28.108 47.554h0.071l0.036 0.091L28.108 47.554zM28.701 47.833L28.5 47.834l-0.203-0.349 0.203-0.35h0.201 0.203l0.202 0.35-0.202 0.349L28.701 47.833zM29.755 48.031c-0.111 0.019-0.226 0.028-0.342 0.028-0.106 0-0.211-0.009-0.313-0.024l-0.078-0.132 0.201-0.351h0.204 0.201l0.202 0.351L29.755 48.031zM30.325 47.831h-0.177-0.201l-0.201-0.348 0.201-0.35h0.201 0.201l0.202 0.35L30.325 47.831zM30.67 47.411l-0.203-0.347 0.203-0.351h0.202 0.203l0.11 0.192c-0.083 0.187-0.194 0.354-0.326 0.505L30.67 47.411z" data-fill-palette-color="accent"/><path fill="#ffcf31" d="M64.085 57.416h1.847c0.248 0 0.248-0.369 0-0.369h-1.847C63.839 57.047 63.839 57.416 64.085 57.416z" data-fill-palette-color="accent"/><path fill="#ffcf31" d="M35.28 64.961l3.104-0.035c0.247-0.001 0.241-0.373-0.005-0.371l-3.103 0.035C35.03 64.593 35.033 64.965 35.28 64.961z" data-fill-palette-color="accent"/></g></svg></g></svg></g>
</svg>